<?xml version="1.0" encoding="utf-8"?>
<svg xmlns="http://www.w3.org/2000/svg" viewBox="1928.8051 -430.6841 165.0649 165.0739" width="165.065px" height="165.074px">
  <defs>
    <linearGradient id="gradient-3-0" href="#gradient-3" gradientUnits="userSpaceOnUse" x1="-995.105" y1="307.113" x2="-995.105" y2="472.112"/>
    <linearGradient id="gradient-3">
      <stop offset="0" style="stop-color: rgb(93, 85, 38);"/>
      <stop style="stop-color: rgb(234, 180, 0);" offset="1"/>
    </linearGradient>
  </defs>
  <g transform="matrix(1.0000029802322388, 0, 0, 1.0000029802322388, 3006.445601440156, -737.760814216149)">
    <title>T-icon</title>
    <path d="M -1043.3 307.113 L -946.98 307.113 C -928 307.113 -912.61 322.503 -912.61 341.483 L -912.61 437.733 C -912.61 456.723 -928 472.112 -946.98 472.112 L -1043.3 472.112 C -1062.3 472.112 -1077.6 456.723 -1077.6 437.733 L -1077.6 341.483 C -1077.6 322.503 -1062.3 307.113 -1043.3 307.113 Z" style="stroke-linejoin: round; stroke-width: 50; stroke-linecap: round; transform-box: fill-box; transform-origin: 50% 50%; fill: url(&quot;#gradient-3-0&quot;);" transform="matrix(-1, 0.000451, -0.000451, -1, 0.000002, 0.000029)"/>
    <path d="M -982.05 363.43 C -990.49 363.45 -998.91 363.46 -1007.4 363.48 C -1023.7 363.32 -1047.8 359.897 -1056.4 365.911 C -1058.5 355.981 -1048.2 339.56 -1038.6 337.82 C -1031.7 336.58 -1023.9 337.5 -1016.8 337.5 C -1002.2 337.52 -987.48 337.55 -972.8 337.54 C -960.59 337.54 -942.22 339.342 -932.54 334.764 C -932.85 338.074 -934.96 345.523 -935.49 348.82 C -938.22 365.727 -956.45 363.06 -982.05 363.43 Z" fill-rule="evenodd" stroke-width="0.25" stroke-linejoin="round" style="stroke-width: 0.25; fill: rgb(255, 255, 255); stroke: rgb(255, 255, 255);"/>
    <path d="M -981.27 363.67 C -987.57 391.19 -993.87 418.71 -1000.2 446.23 C -1008.6 446.23 -1017 446.23 -1025.4 446.23 C -1019.1 418.73 -1012.8 391.23 -1006.6 363.72 C -998.07 363.7 -989.67 363.69 -981.27 363.67 Z" fill-rule="evenodd" stroke-linejoin="round" style="stroke-width: 0.25; stroke: rgb(28, 39, 53); fill: rgb(28, 39, 53);" stroke-width="0.25"/>
  </g>
</svg>