<?xml version="1.0" encoding="utf-8"?>
<svg xmlns="http://www.w3.org/2000/svg" viewBox="-977.3115 510.0994 599.3319 112.6888" width="599.333px" height="112.689px">
  <path d="M -896.19 371.189 C -904.62 371.209 -913.05 371.219 -921.48 371.239 C -937.83 371.079 -961.94 367.656 -970.51 373.67 C -972.59 363.74 -962.36 347.319 -952.71 345.579 C -945.79 344.339 -937.96 345.259 -930.94 345.259 C -916.27 345.279 -901.61 345.309 -886.94 345.299 C -874.72 345.299 -856.35 347.101 -846.68 342.523 C -846.98 345.833 -849.09 353.282 -849.62 356.579 C -852.36 373.486 -870.58 370.819 -896.19 371.189 Z" fill-rule="evenodd" stroke-width="0.25" stroke-linejoin="round" style="stroke-width: 0.25; stroke: rgb(0, 106, 128); fill: rgb(0, 106, 128);" transform="matrix(1, 0, 0, 1, -6.529596902870708, 167.5763422187617)"/>
  <path d="M -522.62 415.699 C -519.998 404.617 -515.509 384.427 -506.278 377.448 C -499.483 372.31 -496.551 373.624 -489.63 373.269 C -480.22 373.269 -470.8 373.269 -461.38 373.269 C -462.7 379.629 -464.02 385.989 -465.34 392.349 C -474.87 392.349 -484.41 392.349 -493.94 392.349 C -496.32 403.169 -499.07 413.919 -501.29 424.779 C -502.03 428.399 -503.58 434.439 -499.25 436.579 C -492.76 439.779 -482.18 436.409 -475.09 437.749 C -476.21 443.079 -477.32 448.419 -478.44 453.749 C -489.23 456.159 -518.04 456.859 -524.32 445.599 C -529.36 436.569 -524.8 424.919 -522.62 415.699 Z M -896.19 371.189 C -902.5 398.709 -908.81 426.229 -915.12 453.749 C -923.52 453.749 -931.92 453.749 -940.33 453.749 C -934.05 426.249 -927.76 398.749 -921.48 371.239 C -913.05 371.219 -904.62 371.209 -896.19 371.189 Z M -809.94 373.449 C -811.27 379.739 -812.61 386.019 -813.94 392.309 C -822 392.449 -834.74 389.769 -841.75 394.429 C -847.02 397.939 -847.17 406.159 -848.48 411.719 C -851.81 425.859 -854.56 440.139 -858.03 454.239 C -866.16 454.239 -874.29 454.239 -882.42 454.239 C -878.24 437.129 -874.57 419.829 -870.7 402.619 C -868.65 393.529 -866.97 383.149 -858.39 377.779 C -845.68 369.839 -824.22 372.449 -809.94 373.449 Z M -809.97 373.416 C -794.67 372.896 -766.25 373.229 -750.94 373.259 C -742.93 373.269 -733.16 373.229 -727.05 379.359 C -721.27 385.149 -721.7 393.389 -723.22 400.799 C -726.82 418.339 -730.06 436.659 -735.39 453.749 C -744.26 455.679 -754.81 454.319 -763.94 454.309 C -776.3 454.289 -789.65 455.739 -801.9 454.099 C -809.35 453.099 -817.04 448.649 -818.54 440.749 C -819.31 436.699 -818.8 432.439 -817.79 428.509 C -809.21 395.139 -771.54 408.699 -746.78 404.749 C -746.78 401.419 -746.78 398.079 -746.78 394.749 C -750.92 391.029 -757.72 392.329 -762.94 392.339 C -775.04 392.369 -801.81 393.128 -813.96 392.313 C -812.46 386.183 -811.48 379.546 -809.97 373.416 Z M -638.94 454.239 C -646.75 454.239 -654.56 454.239 -662.37 454.239 C -660.01 440.399 -656.55 426.489 -653.31 412.809 C -652.17 407.969 -648.56 399.829 -652.01 395.309 C -655.63 390.559 -675.93 391.909 -681.6 392.749 C -686.38 413.249 -691.16 433.739 -695.94 454.239 C -703.81 454.239 -711.67 454.239 -719.54 454.239 C -713.56 427.409 -707.57 400.579 -701.59 373.749 C -693.09 372.239 -683.61 373.249 -674.94 373.249 C -663.21 373.259 -647.9 370.829 -637.09 376.369 C -629.07 380.479 -625.48 388.929 -626.5 397.749 C -628.71 416.699 -634.98 435.579 -638.94 454.239 Z M -529.94 373.709 C -531.27 379.839 -532.61 385.969 -533.94 392.099 C -549.15 393.239 -564.68 392.189 -579.94 392.309 C -586.21 392.349 -593.89 395.049 -590.28 402.749 C -585.97 405.969 -580.09 405.159 -574.94 405.229 C -557.55 405.459 -530.1 403.729 -534.54 429.699 C -539.61 459.419 -572.46 454.289 -594.94 454.309 C -604.38 454.309 -615.33 455.749 -624.49 453.749 C -623.27 448.419 -622.06 443.079 -620.85 437.749 C -603.71 434.649 -585.3 439.009 -567.94 437.159 C -561.29 436.449 -557.67 429.559 -560.73 423.749 C -575.19 415.049 -614.83 432.169 -614.76 402.749 C -614.75 399.349 -614.33 396.059 -613.34 392.809 C -605.73 367.969 -572.84 373.239 -552.94 373.249 C -545.36 373.249 -537.42 372.609 -529.94 373.709 Z M -750.94 419.729 C -761.36 418.839 -794.2 414.739 -793.22 431.729 C -792.93 436.859 -787.97 437.219 -783.94 437.259 C -774.3 437.339 -764.57 437.549 -754.94 437.129 C -753.61 431.329 -752.27 425.529 -750.94 419.729 Z" fill-rule="evenodd" stroke-width="0.25" stroke-linejoin="round" style="stroke-width: 0.25; fill: rgb(255, 255, 255); stroke: rgb(255, 255, 255);" transform="matrix(1, 0, 0, 1, -6.529596902870708, 167.5763422187617)"/>
  <path d="M -459.69 415.219 C -457.06 404.137 -452.57 383.947 -443.35 376.968 C -436.55 371.83 -433.62 373.144 -426.69 372.789 C -417.29 372.789 -407.87 372.789 -398.44 372.789 C -399.76 379.149 -401.08 385.509 -402.4 391.869 C -411.94 391.869 -421.48 391.869 -431 391.869 C -433.38 402.689 -436.13 413.439 -438.36 424.299 C -439.1 427.919 -437.44 435.391 -432.63 435.618 C -424.29 436.01 -419.25 435.929 -412.15 437.269 C -413.27 442.599 -419.43 449.422 -420.55 454.752 C -431.71 455.392 -455.11 456.379 -461.38 445.119 C -466.43 436.089 -461.87 424.439 -459.69 415.219 Z" fill-rule="evenodd" stroke-width="0.25" stroke-linejoin="round" style="stroke-width: 0.25; fill: rgb(255, 255, 255); stroke: rgb(255, 255, 255);" transform="matrix(1, 0, 0, 1, -6.529596902870708, 167.5763422187617)"/>
  <path d="M -432.69 415.17 C -430.07 404.088 -425.58 383.898 -416.36 376.919 C -409.56 371.781 -406.63 373.095 -399.7 372.74 C -390.3 372.74 -380.88 372.74 -371.45 372.74 C -372.77 379.1 -374.1 385.46 -375.42 391.82 C -384.94 391.82 -394.49 391.82 -404.01 391.82 C -406.39 402.64 -409.14 413.39 -411.37 424.25 C -412.11 427.87 -409.85 434.36 -405.2 435.704 C -398.32 437.697 -391.82 435.062 -384.74 436.402 C -385.86 441.732 -387.63 449.112 -388.75 454.442 C -410.88 455.275 -428.12 456.33 -434.39 445.07 C -439.44 436.04 -434.88 424.39 -432.69 415.17 Z" fill-rule="evenodd" stroke-width="0.25" stroke-linejoin="round" style="stroke-width: 0.25; fill: rgb(255, 255, 255); stroke: rgb(255, 255, 255); transform-origin: -404.065px 413.829px;" transform="matrix(-1, 0, 0, -1, -6.52961419, 167.57636981)"/>
</svg>